<svg id="Layer_1" data-name="Layer 1" xmlns="http://www.w3.org/2000/svg" xmlns:xlink="http://www.w3.org/1999/xlink" viewBox="0 0 512 512"><defs><linearGradient id="New_Gradient_Swatch_1" x1="256" x2="256" y2="512" gradientUnits="userSpaceOnUse"><stop offset="0" stop-color="#ededee"/><stop offset="0.76" stop-color="#cfd0d2"/><stop offset="1" stop-color="#a6a8ab"/></linearGradient><linearGradient id="New_Gradient_Swatch_2" x1="256" y1="399.4" x2="256" y2="112.59" gradientUnits="userSpaceOnUse"><stop offset="0" stop-color="#231f20"/><stop offset="1" stop-color="#6d6e70"/></linearGradient></defs><title>add</title><path d="M256,512c141,0,256-115,256-256S397,0,256,0,0,115,0,256,115,512,256,512Z" fill-rule="evenodd" fill="url(#New_Gradient_Swatch_1)"/><path d="M103.23,235V277A23,23,0,0,0,126.17,300h76.49v76.5a23,23,0,0,0,22.95,22.94h42.05a23,23,0,0,0,22.94-22.94V300H367.1A23,23,0,0,0,390,277V235A23,23,0,0,0,367.1,212H290.6V135.54a23,23,0,0,0-22.94-22.94H225.61a23,23,0,0,0-22.95,22.94V212H126.17A23,23,0,0,0,103.23,235Z" fill="#fff" fill-rule="evenodd"/><path d="M112.6,235V277A23,23,0,0,0,135.54,300H212v76.5A23,23,0,0,0,235,399.4H277A23,23,0,0,0,300,376.46V300h76.49A23,23,0,0,0,399.4,277V235A23,23,0,0,0,376.46,212H300V135.54A23,23,0,0,0,277,112.59H235A23,23,0,0,0,212,135.54V212H135.54A23,23,0,0,0,112.6,235Z" fill-rule="evenodd" fill="url(#New_Gradient_Swatch_2)"/></svg>